<svg width="63" height="63" viewBox="0 0 63 63" fill="none" xmlns="http://www.w3.org/2000/svg">
<path d="M59.2244 20.8284C59.202 20.701 59.1548 20.5792 59.0853 20.47C59.0159 20.3609 58.9256 20.2665 58.8196 20.1922C58.7137 20.118 58.5941 20.0654 58.4678 20.0374C58.3415 20.0094 58.2109 20.0066 58.0835 20.0291L53.2384 20.8825C53.1108 20.9049 52.989 20.9522 52.8797 21.0217C52.7705 21.0912 52.6761 21.1816 52.6018 21.2876C52.5276 21.3937 52.475 21.5134 52.447 21.6398C52.4191 21.7662 52.4164 21.8969 52.4391 22.0244L52.6497 23.2165L49.8935 23.6978L48.2348 23.4439V8.85938C48.2348 7.81508 47.82 6.81357 47.0815 6.07514C46.3431 5.33672 45.3416 4.92188 44.2973 4.92188H37.4067V2.95312C37.4067 2.16991 37.0955 1.41877 36.5417 0.86495C35.9879 0.311132 35.2368 0 34.4535 0H28.5473C27.7641 0 27.0129 0.311132 26.4591 0.86495C25.9053 1.41877 25.5942 2.16991 25.5942 2.95312V4.92188H18.7035C17.6593 4.92188 16.6577 5.33672 15.9193 6.07514C15.1809 6.81357 14.7661 7.81508 14.7661 8.85938V23.4468L13.1005 23.7018L10.3521 23.2175L10.5618 22.0244C10.5844 21.8969 10.5817 21.7662 10.5538 21.6398C10.5259 21.5134 10.4733 21.3937 10.399 21.2876C10.3248 21.1816 10.2303 21.0912 10.1211 21.0217C10.0119 20.9522 9.89 20.9049 9.76247 20.8825L4.9223 20.0291C4.79482 20.0064 4.66413 20.0091 4.5377 20.0371C4.41128 20.065 4.2916 20.1176 4.18553 20.1918C4.07946 20.2661 3.98908 20.3605 3.91957 20.4698C3.85005 20.579 3.80277 20.7009 3.78043 20.8284L0.0151909 42.1529C-0.00746751 42.2804 -0.00475517 42.4111 0.0231726 42.5375C0.0511003 42.6639 0.103695 42.7836 0.177944 42.8897C0.252192 42.9957 0.346637 43.0861 0.455868 43.1556C0.565099 43.2252 0.686971 43.2724 0.814503 43.2948L5.66058 44.1482C5.78799 44.1707 5.91858 44.1679 6.04489 44.1399C6.17121 44.1119 6.29076 44.0593 6.39672 43.9851C6.50268 43.9108 6.59297 43.8164 6.66242 43.7073C6.73187 43.5981 6.77912 43.4764 6.80147 43.3489L6.89105 42.8203L7.70414 42.964C8.45357 44.6147 9.54386 46.0881 10.9034 47.2874C10.8513 48.1762 11.1043 49.0562 11.6206 49.7816C12.1369 50.5069 12.8854 51.0342 13.7423 51.2761C13.2818 52.041 13.0965 52.9402 13.2173 53.8248C13.338 54.7094 13.7575 55.5262 14.4061 56.1397C15.0547 56.7532 15.8936 57.1265 16.7835 57.1978C17.6735 57.2691 18.5611 57.0341 19.2991 56.5317C19.397 57.1853 19.6596 57.8033 20.0623 58.3274C20.4649 58.8516 20.9944 59.2646 21.6007 59.5276C22.2071 59.7906 22.8704 59.8949 23.5283 59.8308C24.1861 59.7666 24.8167 59.5361 25.3609 59.1609C25.453 59.7638 25.6854 60.3366 26.0394 60.8333C26.3934 61.3299 26.8591 61.7364 27.399 62.0201C27.9389 62.3038 28.5379 62.4567 29.1477 62.4665C29.7575 62.4763 30.3611 62.3428 30.9098 62.0767V62.0826L31.3035 62.3444C31.7348 62.6299 32.218 62.8276 32.7257 62.9264C33.2333 63.0251 33.7555 63.0228 34.2622 62.9197C34.769 62.8166 35.2505 62.6146 35.6793 62.3254C36.108 62.0362 36.4755 61.6653 36.7609 61.234C37.1919 60.5779 37.4123 59.8059 37.3929 59.0212C37.7122 59.1081 38.0414 59.1538 38.3723 59.157C38.8925 59.1586 39.4078 59.0569 39.8884 58.8579C40.369 58.6588 40.8053 58.3664 41.172 57.9975C41.5387 57.6285 41.8285 57.1905 42.0247 56.7088C42.2209 56.227 42.3195 55.7111 42.3148 55.191C42.6281 55.2734 42.9505 55.3163 43.2745 55.3189C43.794 55.3189 44.3084 55.2162 44.788 55.0165C45.2676 54.8168 45.7029 54.5242 46.0689 54.1556C46.4349 53.7869 46.7244 53.3495 46.9205 52.8685C47.1167 52.3874 47.2158 51.8724 47.212 51.3529C47.8121 51.5093 48.4408 51.5204 49.0461 51.3855C49.6514 51.2505 50.2158 50.9733 50.6926 50.5769C51.1694 50.1804 51.5449 49.676 51.7881 49.1055C52.0312 48.535 52.1349 47.9148 52.0906 47.2963C53.4514 46.0951 54.5418 44.6188 55.2898 42.965L56.1098 42.8252L56.2023 43.3489C56.2247 43.4765 56.272 43.5983 56.3415 43.7076C56.411 43.8168 56.5014 43.9112 56.6074 43.9855C56.7135 44.0597 56.8332 44.1123 56.9596 44.1403C57.086 44.1682 57.2167 44.1709 57.3442 44.1482L62.1893 43.2948C62.3168 43.2724 62.4387 43.2252 62.5479 43.1556C62.6572 43.0861 62.7516 42.9957 62.8259 42.8897C62.9001 42.7836 62.9527 42.6639 62.9806 42.5375C63.0086 42.4111 63.0113 42.2804 62.9886 42.1529L59.2244 20.8284ZM27.5629 2.95312C27.5629 2.69205 27.6666 2.44167 27.8512 2.25707C28.0358 2.07246 28.2862 1.96875 28.5473 1.96875H34.4535C34.7146 1.96875 34.965 2.07246 35.1496 2.25707C35.3342 2.44167 35.4379 2.69205 35.4379 2.95312V4.92188H27.5629V2.95312ZM16.7348 8.85938C16.7348 8.33723 16.9422 7.83647 17.3114 7.46726C17.6806 7.09805 18.1814 6.89062 18.7035 6.89062H44.2973C44.8194 6.89062 45.3202 7.09805 45.6894 7.46726C46.0586 7.83647 46.266 8.33723 46.266 8.85938V11.8125C46.266 12.5957 45.9549 13.3469 45.4011 13.9007C44.8473 14.4545 44.0961 14.7656 43.3129 14.7656V13.7812C43.3129 13.5202 43.2092 13.2698 43.0246 13.0852C42.84 12.9006 42.5896 12.7969 42.3285 12.7969H38.391C38.13 12.7969 37.8796 12.9006 37.695 13.0852C37.5104 13.2698 37.4067 13.5202 37.4067 13.7812V14.7656H25.5942V13.7812C25.5942 13.5202 25.4905 13.2698 25.3059 13.0852C25.1213 12.9006 24.8709 12.7969 24.6098 12.7969H20.6723C20.4112 12.7969 20.1608 12.9006 19.9762 13.0852C19.7916 13.2698 19.6879 13.5202 19.6879 13.7812V14.7656C18.9047 14.7656 18.1536 14.4545 17.5997 13.9007C17.0459 13.3469 16.7348 12.5957 16.7348 11.8125V8.85938ZM41.3442 14.7656V16.7344H39.3754V14.7656H41.3442ZM23.6254 14.7656V16.7344H21.6567V14.7656H23.6254ZM16.7348 15.7244C17.5817 16.3759 18.6194 16.7308 19.6879 16.7344V17.7188C19.6879 17.9798 19.7916 18.2302 19.9762 18.4148C20.1608 18.5994 20.4112 18.7031 20.6723 18.7031H24.6098C24.8709 18.7031 25.1213 18.5994 25.3059 18.4148C25.4905 18.2302 25.5942 17.9798 25.5942 17.7188V16.7344H37.4067V17.7188C37.4067 17.9798 37.5104 18.2302 37.695 18.4148C37.8796 18.5994 38.13 18.7031 38.391 18.7031H42.3285C42.5896 18.7031 42.84 18.5994 43.0246 18.4148C43.2092 18.2302 43.3129 17.9798 43.3129 17.7188V16.7344C44.3814 16.7308 45.4191 16.3759 46.266 15.7244V23.1427L38.7848 21.9988C37.158 21.7538 35.4951 21.9647 33.981 22.6081L31.5004 23.6654L29.0267 22.6111C27.5102 21.9649 25.8435 21.7545 24.2141 22.0037L16.7348 23.1466V15.7244ZM5.03353 42.0397L2.12569 41.5259L5.54344 22.1337L8.45227 22.6465L5.03353 42.0397ZM13.319 48.7561C12.9835 48.3562 12.8206 47.8395 12.866 47.3195C12.9114 46.7995 13.1615 46.3188 13.5612 45.9831L17.3323 42.8203C17.7323 42.4846 18.2492 42.3215 18.7695 42.3669C19.2897 42.4123 19.7705 42.6625 20.1063 43.0625C20.442 43.4624 20.6051 43.9794 20.5597 44.4996C20.5143 45.0198 20.2641 45.5007 19.8641 45.8364L16.093 49.0012C15.8948 49.1673 15.6658 49.2927 15.4191 49.3703C15.1724 49.4479 14.9128 49.4761 14.6552 49.4533C14.3976 49.4306 14.147 49.3573 13.9178 49.2376C13.6885 49.118 13.485 48.9544 13.319 48.7561ZM18.3807 54.7893C18.1826 54.9556 17.9537 55.0812 17.707 55.1589C17.4604 55.2367 17.2008 55.2651 16.9432 55.2426C16.6856 55.2201 16.4349 55.147 16.2055 55.0276C15.9761 54.9082 15.7725 54.7448 15.6062 54.5467C15.44 54.3486 15.3144 54.1197 15.2366 53.873C15.1588 53.6264 15.1304 53.3668 15.1529 53.1092C15.1755 52.8516 15.2485 52.6009 15.3679 52.3715C15.4873 52.1421 15.6508 51.9385 15.8489 51.7722L20.377 47.9755C20.7791 47.6608 21.2877 47.5146 21.7956 47.5678C22.3034 47.621 22.7707 47.8694 23.0989 48.2607C23.427 48.6519 23.5903 49.1553 23.5543 49.6647C23.5183 50.174 23.2858 50.6495 22.9058 50.9906L18.3807 54.7893ZM24.4395 57.4156C24.2414 57.5818 24.0125 57.7073 23.7659 57.7851C23.5193 57.8628 23.2597 57.8912 23.0022 57.8686C22.7446 57.846 22.494 57.7729 22.2646 57.6535C22.0353 57.534 21.8317 57.3706 21.6655 57.1725C21.4994 56.9744 21.3738 56.7455 21.2961 56.4989C21.2184 56.2523 21.19 55.9927 21.2126 55.7352C21.2352 55.4776 21.3083 55.227 21.4277 54.9976C21.5471 54.7683 21.7106 54.5647 21.9087 54.3985L24.9258 51.8677C25.3265 51.5387 25.8408 51.3811 26.3571 51.4291C26.8733 51.4771 27.3498 51.7268 27.6831 52.1239C28.0163 52.5211 28.1795 53.0337 28.1371 53.5504C28.0947 54.0672 27.8502 54.5463 27.4566 54.8838L24.4395 57.4156ZM30.4973 60.0469C30.0967 60.3778 29.5815 60.5369 29.0641 60.4895C28.5466 60.4421 28.0689 60.1921 27.735 59.7939C27.4011 59.3958 27.2382 58.8817 27.2818 58.3639C27.3253 57.8461 27.5718 57.3666 27.9675 57.0298L30.9836 54.4989C31.1817 54.3327 31.4105 54.207 31.6571 54.1292C31.9037 54.0514 32.1632 54.0229 32.4208 54.0454C32.6784 54.0679 32.929 54.1409 33.1584 54.2603C33.3878 54.3797 33.5914 54.543 33.7576 54.7411C33.9238 54.9392 34.0494 55.1681 34.1271 55.4147C34.2048 55.6613 34.2332 55.9208 34.2106 56.1784C34.1881 56.436 34.115 56.6867 33.9955 56.916C33.8761 57.1453 33.7126 57.3489 33.5145 57.5151L30.4973 60.0469ZM35.117 60.1512C34.8561 60.5489 34.4588 60.8375 33.9999 60.9626C33.541 61.0877 33.0522 61.0407 32.6256 60.8304L34.7804 59.0231C34.9842 58.8527 35.1702 58.6621 35.3355 58.4542C35.4287 58.7343 35.4575 59.0319 35.4196 59.3247C35.3818 59.6175 35.2784 59.898 35.117 60.1453V60.1512ZM49.8226 48.6281C49.6799 48.8438 49.4961 49.0292 49.2818 49.1738C49.0674 49.3184 48.8266 49.4194 48.5733 49.471C48.3199 49.5225 48.0588 49.5236 47.805 49.4743C47.5511 49.4249 47.3095 49.3261 47.0939 49.1833L38.8832 43.7525C38.7756 43.6745 38.6533 43.6191 38.5237 43.5897C38.394 43.5602 38.2598 43.5573 38.129 43.5812C37.9983 43.605 37.8737 43.6551 37.7628 43.7284C37.6519 43.8017 37.557 43.8967 37.4838 44.0077C37.4106 44.1186 37.3607 44.2433 37.337 44.3741C37.3133 44.5048 37.3163 44.6391 37.3459 44.7687C37.3755 44.8983 37.431 45.0205 37.5091 45.1281C37.5872 45.2356 37.6863 45.3262 37.8004 45.3945L44.3701 49.7424C44.8054 50.0311 45.1081 50.4807 45.2117 50.9926C45.3154 51.5044 45.2115 52.0364 44.9229 52.4716C44.6343 52.9068 44.1846 53.2096 43.6728 53.3132C43.1609 53.4169 42.6289 53.313 42.1937 53.0243L35.625 48.6773C35.5155 48.604 35.3922 48.5538 35.2627 48.5297C35.0392 48.4876 34.8079 48.5241 34.6083 48.6332C34.4087 48.7423 34.253 48.9172 34.1678 49.1281C34.0825 49.339 34.0729 49.5729 34.1406 49.79C34.2083 50.0072 34.3492 50.1942 34.5392 50.3193L39.4611 53.5805C39.8936 53.8701 40.1939 54.3193 40.2961 54.8297C40.3984 55.3401 40.2943 55.8703 40.0067 56.3042C39.7191 56.7381 39.2713 57.0404 38.7614 57.145C38.2514 57.2496 37.7208 57.148 37.2856 56.8624L36.1634 56.1202C36.1905 55.3979 36.0166 54.6823 35.6609 54.0531C35.3053 53.4239 34.7819 52.9058 34.1491 52.5566C33.5164 52.2073 32.799 52.0406 32.0771 52.0751C31.3551 52.1095 30.6569 52.3438 30.0603 52.7517C29.984 52.2399 29.806 51.7485 29.5368 51.3066C29.2677 50.8646 28.9129 50.481 28.4932 50.1783C28.0735 49.8756 27.5975 49.6599 27.0932 49.544C26.5889 49.428 26.0665 49.4142 25.5568 49.5032C25.574 48.5715 25.2535 47.665 24.6544 46.9512C24.0553 46.2374 23.2181 45.7645 22.2975 45.6199C22.5856 44.8071 22.5981 43.9221 22.333 43.1016C22.0679 42.281 21.54 41.5706 20.8309 41.08C20.1217 40.5894 19.2708 40.3459 18.4095 40.3872C17.5482 40.4284 16.7244 40.7522 16.0654 41.3083L12.2943 44.4731C12.0306 44.7001 11.7989 44.9617 11.6052 45.2507C10.6201 44.2351 9.84351 43.0361 9.3195 41.7217C9.25744 41.5654 9.15636 41.4276 9.02591 41.3215C8.89546 41.2153 8.73999 41.1444 8.57433 41.1154L7.2346 40.8791L10.0076 25.1537L12.9154 25.6666C13.0213 25.6848 13.1295 25.6848 13.2353 25.6666L24.5114 23.9498C25.7779 23.7556 27.0735 23.9192 28.252 24.4223L28.9844 24.7344L25.0538 26.4078C24.1706 26.7855 23.4177 27.4139 22.8881 28.2151L19.1839 33.7995C18.7554 34.4554 18.6033 35.254 18.7607 36.0215C18.9181 36.789 19.3724 37.4633 20.0246 37.8975C21.1137 38.6151 22.4429 38.8717 23.7209 38.6109C24.9989 38.3502 26.1214 37.5935 26.8424 36.5065L28.5325 33.9609L32.1265 33.2256C32.5138 34.4199 33.1718 35.5085 34.0491 36.4067C34.9264 37.3048 35.9994 37.9882 37.1842 38.4034C37.6042 38.5532 38.0349 38.6707 38.4728 38.7548L49.2664 45.9014C49.7016 46.1894 50.0046 46.6384 50.1088 47.1497C50.2131 47.6609 50.1102 48.1927 49.8226 48.6281ZM54.4245 41.1173C54.2582 41.1463 54.1021 41.2176 53.9713 41.3243C53.8404 41.431 53.7392 41.5696 53.6774 41.7267C53.1531 43.0471 52.3737 44.2513 51.3838 45.2704C51.1066 44.8716 50.757 44.5283 50.3532 44.2585L41.986 38.7233C43.0733 38.5061 44.109 38.0831 45.0375 37.4771L46.584 36.4632C46.8023 36.3196 46.9545 36.0952 47.0073 35.8394C47.0601 35.5835 47.0091 35.3171 46.8655 35.0989C46.7219 34.8806 46.4975 34.7283 46.2417 34.6755C45.9858 34.6227 45.7194 34.6738 45.5012 34.8173L43.9597 35.8313C43.0681 36.4168 42.0524 36.7867 40.9931 36.9116C39.9337 37.0365 38.8598 36.913 37.8565 36.5508C36.9332 36.2291 36.0991 35.6937 35.4221 34.9882C34.7452 34.2827 34.2446 33.4271 33.9614 32.4913C33.9003 32.2944 33.8491 32.0847 33.8058 31.877C33.7525 31.6223 33.6005 31.399 33.383 31.256C33.1655 31.113 32.9003 31.062 32.6453 31.1141L27.7421 32.1182C27.487 32.1704 27.2629 32.3215 27.119 32.5385L25.2103 35.4218C24.7775 36.0734 24.1042 36.5272 23.3377 36.6838C22.5713 36.8404 21.7739 36.6871 21.1202 36.2575C20.902 36.1122 20.75 35.8868 20.6969 35.6301C20.6438 35.3734 20.694 35.1061 20.8367 34.8862L24.5389 29.3029C24.8564 28.8234 25.307 28.4471 25.8353 28.2201L34.7548 24.4204C35.9339 23.9198 37.2287 23.7559 38.4954 23.9469L49.7665 25.6695C49.8718 25.6858 49.9791 25.6858 50.0844 25.6695L52.9982 25.1596L55.7653 40.885L54.4245 41.1173ZM57.9683 42.0377L54.5496 22.6455L57.4584 22.1327L60.8761 41.5249L57.9683 42.0377Z" fill="#CAA966"/>
</svg>
