<svg width="63" height="63" viewBox="0 0 63 63" fill="none" xmlns="http://www.w3.org/2000/svg">
<path d="M21.1817 16.9465H24.8731V20.6379H21.1817V16.9465Z" fill="#CAA966"/>
<path d="M21.1817 25.4191H24.8731V29.1105H21.1817V25.4191Z" fill="#CAA966"/>
<path d="M38.1269 25.4191H41.8183V29.1105H38.1269V25.4191Z" fill="#CAA966"/>
<path d="M46.5996 25.4191H50.291V29.1105H46.5996V25.4191Z" fill="#CAA966"/>
<path d="M38.1269 33.8919H41.8183V37.5833H38.1269V33.8919Z" fill="#CAA966"/>
<path d="M46.5996 33.8919H50.291V37.5833H46.5996V33.8919Z" fill="#CAA966"/>
<path d="M38.1269 42.3645H41.8183V46.0559H38.1269V42.3645Z" fill="#CAA966"/>
<path d="M46.5996 42.3645H50.291V46.0559H46.5996V42.3645Z" fill="#CAA966"/>
<path d="M38.1269 50.8372H41.8183V54.5286H38.1269V50.8372Z" fill="#CAA966"/>
<path d="M46.5996 50.8372H50.291V54.5286H46.5996V50.8372Z" fill="#CAA966"/>
<path d="M12.709 25.4191H16.4004V29.1105H12.709V25.4191Z" fill="#CAA966"/>
<path d="M21.1817 33.8919H24.8731V37.5833H21.1817V33.8919Z" fill="#CAA966"/>
<path d="M12.709 33.8919H16.4004V37.5833H12.709V33.8919Z" fill="#CAA966"/>
<path d="M21.1817 42.3645H24.8731V46.0559H21.1817V42.3645Z" fill="#CAA966"/>
<path d="M12.709 42.3645H16.4004V46.0559H12.709V42.3645Z" fill="#CAA966"/>
<path d="M58.7636 59.3098V16.9465H33.3457V8.14077L29.1093 8.84681V0.0012207H8.47264V12.2863L4.23638 12.9924V59.3098H0V63.0012H63V59.3098H58.7636ZM55.0722 20.6379V59.3098H33.3457V20.6379H55.0722ZM12.164 3.69263H25.4179V9.46205L12.164 11.6711V3.69263ZM7.92779 16.1195L29.6543 12.4984V59.3098H24.8731V50.8372H12.709V59.3098H7.92779V16.1195ZM21.1817 59.3098H16.4004V54.5286H21.1817V59.3098Z" fill="#CAA966"/>
</svg>
