<svg width="63" height="63" viewBox="0 0 63 63" fill="none" xmlns="http://www.w3.org/2000/svg">
<path fill-rule="evenodd" clip-rule="evenodd" d="M43.2353 16.7588V19.8543H45.8657C47.8858 19.8543 47.8858 16.7588 45.8657 16.7588H43.2353ZM18.5294 48.9782C7.33907 48.9782 -0.770268 38.3256 2.09271 27.6003C5.07195 16.5118 17.8899 11.5851 27.5107 17.6017C27.2782 11.3381 30.4754 5.46678 35.9979 2.28408C44.1072 -2.41003 54.5128 0.380277 59.2069 8.48962C63.8719 16.5699 61.0962 26.99 53.0304 31.6841C63.6104 38.3983 63.5958 54.2682 52.42 60.7208C41.4041 67.0716 27.4816 59.4128 26.9439 46.7401C24.3716 48.208 21.465 48.9782 18.5294 48.9782ZM29.2982 18.8806C33.0041 21.918 35.2858 26.5394 35.4747 31.2626C40.2996 28.5014 46.3162 28.3125 51.2865 30.7104C59.1778 26.801 62.1571 16.9623 57.7536 9.33253C53.5245 2.02249 44.1508 -0.491694 36.8408 3.73737C31.4636 6.83287 28.528 12.7478 29.2982 18.8806ZM29.211 45.1851L28.6152 45.6502C28.3245 57.5381 41.2733 65.2114 51.5771 59.2675C58.8872 55.0384 61.4014 45.6647 57.1868 38.3547C52.7688 30.7104 42.7266 28.4287 35.4456 33.2536C35.0969 37.9768 32.8443 42.2495 29.211 45.1851ZM18.4858 16.6716C6.80136 16.6716 -0.639472 29.446 5.24634 39.6481C10.0567 47.99 21.2325 49.7484 28.3972 43.6737C33.9488 38.9941 35.5183 30.8412 31.7688 24.3305C29.0367 19.6073 23.9501 16.6716 18.4858 16.6716ZM18.5294 45.2868C13.7771 45.2868 9.35914 42.7436 6.99028 38.6453C1.84565 29.7076 8.44357 18.7062 18.4858 18.7062C23.238 18.7062 27.656 21.2495 30.0249 25.3478C35.1695 34.2709 28.5571 45.2868 18.5294 45.2868ZM18.4858 20.3775C9.72246 20.3775 3.93838 29.9983 8.44357 37.8024C11.6553 43.354 18.82 45.2287 24.3135 42.046C29.865 38.8488 31.7688 31.7277 28.5716 26.1907C26.4934 22.601 22.6422 20.3775 18.4858 20.3775ZM51.1411 28.3561C50.3854 28.3561 45.2408 25.5803 38.018 27.9491C37.5529 28.0945 37.0588 27.8183 36.9425 27.3533C36.056 23.8363 34.1232 20.5664 31.4782 18.0958C31.3038 17.936 31.2166 17.7325 31.202 17.5145C30.9114 9.98651 37.0152 3.69377 44.4706 3.69377C49.2228 3.69377 53.6408 6.25156 56.0097 10.3498C59.5847 16.5554 57.6519 24.4176 51.5917 28.2398C51.4463 28.3125 51.301 28.3561 51.1411 28.3561ZM43.9183 25.3332C46.3598 25.3332 48.7432 25.7547 51.0394 26.583C56.0678 23.1678 57.6228 16.4827 54.5564 11.1782C51.3591 5.65571 44.1799 3.7519 38.6865 6.9346C35.0387 9.04187 32.8297 12.9076 32.8733 17.1076C35.4166 19.5637 37.3204 22.7028 38.3377 26.0889C40.1398 25.5803 42.0145 25.3332 43.9183 25.3332ZM43.9474 59.2965C37.0152 59.2965 31.202 53.8903 30.6643 47.0599C30.6498 46.7837 30.7515 46.5367 30.955 46.3623C34.3557 43.4121 36.6083 39.3284 37.2913 34.8522C37.3349 34.5907 37.4948 34.3727 37.7273 34.2419C43.9764 30.9574 51.8823 33.21 55.4283 39.3574C60.5875 48.2806 53.9751 59.2965 43.9474 59.2965ZM32.3792 47.336C33.3238 55.6197 42.5668 60.1976 49.7315 56.0702C55.283 52.8585 57.1868 45.7519 53.9896 40.2003C50.9522 34.954 44.2962 32.9339 38.8754 35.5353C38.0906 40.0841 35.7944 44.2405 32.3792 47.336ZM18.5003 41.799C18.2242 41.799 17.9626 41.6536 17.8027 41.4211L11.3065 31.5533L11.1758 31.0882L11.3792 30.5505L17.8609 22.4993C18.1661 22.1069 18.8346 22.1069 19.1543 22.4993L25.665 30.5796C25.883 30.8702 25.8976 31.2772 25.6796 31.5824L19.2124 41.4211C19.0526 41.6536 18.791 41.799 18.5003 41.799ZM14.4892 33.3408L18.5003 39.4446L22.5259 33.3408C21.8429 33.6896 19.2851 35.1138 18.7764 35.2737C18.5585 35.3464 18.3259 35.3318 18.1225 35.2301L14.4892 33.3408ZM13.3121 30.8266L18.5003 33.5298L23.7031 30.8266L18.5003 24.3595L13.3121 30.8266ZM43.9328 52.9457C42.8865 52.9457 43.1045 51.6522 43.1045 50.9547C42.3924 50.9547 41.0408 51.1727 41.0408 50.1118C41.0408 49.6467 41.4187 49.2689 41.8837 49.2689H45.1536V46.8419H41.8837C41.4187 46.8419 41.0408 46.464 41.0408 46.0135C41.0408 40.7526 40.5903 41.0578 43.1045 41.0578C43.1045 40.3602 42.8865 39.0668 43.9328 39.0668C44.9792 39.0668 44.7758 40.3602 44.7758 41.0578C45.4733 41.0578 46.8249 40.8398 46.8249 41.9007C46.8249 42.3657 46.4616 42.7436 45.9965 42.7436H42.7266V45.1706H45.9965C46.4616 45.1706 46.8249 45.5484 46.8249 46.0135C46.8249 51.2599 47.2899 50.9547 44.7758 50.9547C44.7758 51.6522 44.9792 52.9457 43.9328 52.9457ZM42.3924 21.5256C41.4913 21.5256 39.8927 21.8163 39.8927 20.6972C39.8927 19.7526 40.91 19.8543 41.564 19.8543V11.992C40.91 11.992 39.8927 12.0792 39.8927 11.1491C39.8927 10.0301 41.4913 10.3062 42.3924 10.3062H42.7557C42.7557 9.66678 42.654 8.64948 43.5841 8.64948C44.5287 8.64948 44.427 9.66678 44.427 10.3062H44.7903C47.4643 10.3062 48.9031 13.3872 47.3771 15.4509C50.2401 16.9914 49.2519 21.5256 45.8657 21.5256H44.427C44.427 22.2087 44.6014 23.4149 43.5841 23.4149C42.5813 23.4149 42.7557 22.2087 42.7557 21.5256H42.3924ZM43.2353 15.0875H44.8194C46.8104 15.0585 46.7958 11.992 44.7903 11.992H43.2353V15.0875Z" fill="#CAA866"/>
</svg>
