<svg width="63" height="63" viewBox="0 0 63 63" fill="none" xmlns="http://www.w3.org/2000/svg">
<path d="M46.6149 31.9441C46.2532 35.4499 44.6998 38.7256 42.214 41.224C39.7281 43.7224 36.4604 45.2924 32.9565 45.6718C32.8859 45.671 32.8159 45.6843 32.7506 45.7109C32.6852 45.7375 32.6259 45.7769 32.576 45.8268C32.5261 45.8767 32.4867 45.9361 32.46 46.0014C32.4334 46.0668 32.4202 46.1368 32.421 46.2073V57.667C32.421 57.9511 32.3082 58.2235 32.1073 58.4244C31.9065 58.6252 31.634 58.738 31.35 58.738C31.066 58.738 30.7935 58.6252 30.5927 58.4244C30.3918 58.2235 30.279 57.9511 30.279 57.667V53.509C30.2688 53.3704 30.2091 53.24 30.1108 53.1417C30.0125 53.0434 29.8821 52.9837 29.7435 52.9735C24.9801 52.5881 20.4619 50.7012 16.8392 47.5845C13.2164 44.4678 10.676 40.282 9.5835 35.6296C9.54283 35.4918 9.53033 35.3472 9.54672 35.2044C9.56312 35.0616 9.60808 34.9236 9.67893 34.7986C9.74978 34.6735 9.84508 34.564 9.95913 34.4766C10.0732 34.3892 10.2037 34.3256 10.3428 34.2896C10.482 34.2537 10.6269 34.2461 10.7691 34.2674C10.9112 34.2886 11.0476 34.3382 11.1702 34.4133C11.2927 34.4884 11.3989 34.5873 11.4824 34.7043C11.5659 34.8213 11.625 34.9539 11.6562 35.0941C12.6274 39.2702 14.8921 43.0331 18.1275 45.8465C21.3629 48.6599 25.4037 50.3802 29.6742 50.7622C29.8128 50.8315 29.9451 50.7622 30.0774 50.6299C30.1473 50.5905 30.2039 50.531 30.2398 50.4592C30.2757 50.3873 30.2894 50.3064 30.279 50.2267V46.2073C30.2798 46.1368 30.2666 46.0668 30.24 46.0014C30.2133 45.9361 30.1739 45.8767 30.124 45.8268C30.0741 45.7769 30.0148 45.7375 29.9494 45.7109C29.8841 45.6843 29.8141 45.671 29.7435 45.6718C26.2563 45.2833 23.0021 43.7295 20.5077 41.2618C18.0138 38.7553 16.4568 35.468 16.0977 31.9504C16.0773 31.8217 16.0126 31.7041 15.9149 31.6179C15.8172 31.5317 15.6925 31.4822 15.5622 31.4779H4.1025C3.8101 31.4779 3.52967 31.3618 3.32291 31.155C3.11616 30.9483 3 30.6678 3 30.3754C3 30.083 3.11616 29.8026 3.32291 29.5959C3.52967 29.3891 3.8101 29.2729 4.1025 29.2729H8.4558C8.5857 29.2675 8.7098 29.2176 8.80729 29.1316C8.90478 29.0456 8.96974 28.9287 8.9913 28.8004C9.27717 24.0442 11.0444 19.4966 14.0451 15.7954C17.0459 12.0942 21.1297 9.42483 25.7241 8.16164C26.0023 8.10883 26.2902 8.16448 26.5287 8.31717C26.7672 8.46986 26.9383 8.70803 27.0068 8.98281C27.0752 9.2576 27.036 9.54818 26.8971 9.79495C26.7581 10.0417 26.5301 10.226 26.2596 10.3099C22.1492 11.4183 18.4876 13.7826 15.786 17.0727C13.0843 20.3628 11.4776 24.4144 11.19 28.6618C11.1722 28.7401 11.1729 28.8214 11.1921 28.8993C11.2112 28.9773 11.2482 29.0497 11.3002 29.1108C11.3521 29.1719 11.4176 29.2201 11.4915 29.2515C11.5653 29.283 11.6454 29.2968 11.7255 29.2918H15.537C15.6673 29.2876 15.792 29.2381 15.8897 29.1519C15.9874 29.0656 16.0521 28.9481 16.0725 28.8193C16.4292 25.3071 17.9821 22.0241 20.471 19.5204C22.9598 17.0166 26.2334 15.4442 29.7435 15.0664C29.8141 15.0673 29.8841 15.054 29.9494 15.0274C30.0148 15.0008 30.0741 14.9614 30.124 14.9115C30.1739 14.8616 30.2133 14.8022 30.24 14.7369C30.2666 14.6715 30.2798 14.6015 30.279 14.5309V3.07124C30.279 2.7872 30.3918 2.51478 30.5927 2.31393C30.7935 2.11308 31.066 2.00024 31.35 2.00024C31.634 2.00024 31.9065 2.11308 32.1073 2.31393C32.3082 2.51478 32.421 2.7872 32.421 3.07124V16.0681C32.4282 16.2198 32.4036 16.3713 32.3489 16.5129C32.2941 16.6545 32.2104 16.7831 32.103 16.8904C31.9956 16.9978 31.867 17.0815 31.7254 17.1363C31.5838 17.1911 31.4324 17.2156 31.2807 17.2084C19.632 17.2084 13.8108 31.4716 22.0449 39.712C30.279 47.9524 44.3343 42.0556 44.5359 30.3691C44.5342 30.228 44.5608 30.088 44.614 29.9573C44.6672 29.8266 44.746 29.7079 44.8458 29.6081C44.9456 29.5083 45.0644 29.4294 45.1951 29.3762C45.3258 29.323 45.4658 29.2965 45.6069 29.2981H58.5975C58.8899 29.2981 59.1703 29.4143 59.3771 29.6211C59.5838 29.8278 59.7 30.1082 59.7 30.4006C59.7 30.693 59.5838 30.9735 59.3771 31.1802C59.1703 31.387 58.8899 31.5031 58.5975 31.5031H54.3135C54.1806 31.4978 54.0507 31.5439 53.951 31.632C53.8512 31.72 53.7892 31.8431 53.778 31.9756C53.4303 36.7616 51.5794 41.3153 48.4896 44.9867C45.3998 48.658 41.229 51.2593 36.5727 52.4191C35.1678 52.753 34.6827 50.611 36.1002 50.2771C40.2585 49.2433 43.9876 46.9308 46.7623 43.6657C49.537 40.4005 51.2173 36.3471 51.5667 32.0764C51.5845 31.9982 51.5838 31.9169 51.5646 31.839C51.5455 31.761 51.5085 31.6886 51.4565 31.6275C51.4046 31.5664 51.3391 31.5182 51.2653 31.4867C51.1914 31.4553 51.1113 31.4415 51.0312 31.4464H47.1504C47.0201 31.4507 46.8954 31.5002 46.7977 31.5864C46.7 31.6726 46.6353 31.7902 46.6149 31.9189V31.9441ZM55.29 14.1277L47.5473 21.8263C47.3581 22.0317 47.0954 22.154 46.8165 22.1665H41.6568C41.516 22.1789 41.38 22.2242 41.2599 22.2988L32.0871 31.5409C31.8808 31.7336 31.6079 31.8388 31.3256 31.8343C31.0434 31.8298 30.7739 31.716 30.5739 31.5168C30.3739 31.3176 30.259 31.0486 30.2533 30.7664C30.2477 30.4842 30.3517 30.2108 30.5436 30.0037L39.7164 20.7553C39.7781 20.7244 39.8298 20.6766 39.8655 20.6175C39.9012 20.5584 39.9194 20.4905 39.918 20.4214V15.2491C39.9167 15.1001 39.9456 14.9524 40.003 14.8149C40.0604 14.6774 40.1451 14.5529 40.2519 14.449L47.9505 6.75674C48.0992 6.59603 48.2928 6.48381 48.5061 6.4347C48.7195 6.38559 48.9427 6.40187 49.1466 6.48141C49.3506 6.56096 49.5259 6.70008 49.6496 6.88067C49.7734 7.06125 49.8399 7.27492 49.8405 7.49384V11.7148C49.8494 11.8539 49.9087 11.985 50.0072 12.0836C50.1058 12.1822 50.2369 12.2414 50.376 12.2503H54.5277C54.7491 12.2445 54.9672 12.3056 55.1535 12.4255C55.3397 12.5454 55.4855 12.7187 55.5719 12.9227C55.6582 13.1267 55.6811 13.3519 55.6376 13.5691C55.5941 13.7863 55.4861 13.9854 55.3278 14.1403L55.29 14.1277ZM46.47 19.7977L50.9556 15.3121C51.0335 15.2401 51.0886 15.1468 51.114 15.0438C51.1394 14.9408 51.134 14.8326 51.0984 14.7326C51.0628 14.6326 50.9987 14.5453 50.914 14.4815C50.8292 14.4176 50.7276 14.3801 50.6217 14.3734H48.7317C48.4391 14.3803 48.1556 14.2718 47.9422 14.0715C47.7289 13.8711 47.6029 13.5949 47.5914 13.3024V11.4691C47.5909 11.3606 47.5585 11.2547 47.4984 11.1644C47.4382 11.0741 47.3528 11.0035 47.2529 10.9612C47.153 10.9189 47.0428 10.9069 46.9361 10.9267C46.8295 10.9464 46.7309 10.997 46.6527 11.0722L42.2427 15.5578C42.125 15.6604 42.0525 15.8053 42.0411 15.961V19.4449C42.0403 19.5155 42.0535 19.5855 42.0801 19.6509C42.1068 19.7162 42.1462 19.7756 42.1961 19.8255C42.246 19.8754 42.3053 19.9148 42.3707 19.9414C42.436 19.968 42.506 19.9813 42.5766 19.9804H46.1235C46.2621 19.9804 46.3944 19.9804 46.4574 19.8418L46.47 19.7977ZM40.4472 30.3817C40.4497 32.183 39.9177 33.9446 38.9187 35.4435C37.9196 36.9423 36.4983 38.1111 34.8347 38.8019C33.1711 39.4926 31.34 39.6743 29.5731 39.324C27.8062 38.9736 26.1829 38.107 24.9088 36.8337C23.6346 35.5604 22.7669 33.9378 22.4153 32.1711C22.0637 30.4045 22.2442 28.5732 22.9338 26.9091C23.6234 25.2451 24.7912 23.823 26.2893 22.8229C27.7875 21.8228 29.5487 21.2896 31.35 21.2908C31.6207 21.3116 31.8735 21.4338 32.058 21.6329C32.2425 21.8321 32.345 22.0935 32.345 22.365C32.345 22.6365 32.2425 22.8979 32.058 23.0971C31.8735 23.2962 31.6207 23.4184 31.35 23.4391C29.512 23.4391 27.7494 24.1693 26.4497 25.4689C25.1501 26.7685 24.42 28.5312 24.42 30.3691C24.42 32.2071 25.1501 33.9698 26.4497 35.2694C27.7494 36.569 29.512 37.2991 31.35 37.2991C35.3694 37.2991 38.0469 34.2877 38.2422 30.3691C38.2359 30.2171 38.261 30.0655 38.3158 29.9236C38.3707 29.7817 38.4541 29.6526 38.561 29.5443C38.6679 29.4361 38.7959 29.351 38.9371 29.2943C39.0782 29.2376 39.2296 29.2106 39.3816 29.215C39.5337 29.2193 39.6832 29.2549 39.821 29.3195C39.9587 29.3841 40.0816 29.4764 40.1822 29.5905C40.2827 29.7047 40.3587 29.8383 40.4054 29.9831C40.452 30.1279 40.4684 30.2808 40.4535 30.4321L40.4472 30.3817Z" fill="#CAA866"/>
</svg>
