<svg width="63" height="63" viewBox="0 0 63 63" fill="none" xmlns="http://www.w3.org/2000/svg">
<g clip-path="url(#clip0_2003_945)">
<path fill-rule="evenodd" clip-rule="evenodd" d="M55.454 60.3548C55.454 60.3548 53.5312 53.0389 53.5312 47.5625C53.5312 44.1375 55.2966 40.9967 57.0094 37.4733C58.8928 33.5942 60.75 29.3083 60.75 23.9375C60.75 12.3343 52.6519 -1 34.5 -1C25.6078 -1 18.2054 3.14159 13.7035 8.43688C10.6257 12.0581 8.90625 16.2239 8.90625 20C8.90625 25.5309 6.14348 28.5234 4.51598 30.8111C3.5841 32.1236 3 33.293 3 34.4375C3 35.4698 3.51839 36.3354 4.43058 37.0093C5.55933 37.8388 7.42969 38.3507 8.90625 38.7327C8.89313 43.1249 8.84055 47.1064 9.49024 49.9145C10.0677 52.4056 11.2163 54.0633 13.0669 54.7077C16.3219 55.8424 18.6713 55.9258 20.4235 56.1469C21.1847 56.2421 21.8015 56.3333 22.3003 56.6949C23.1271 57.2921 23.5538 58.5101 24.0263 60.9375C24.1641 61.6489 24.853 62.1142 25.5618 61.9757C26.2771 61.8379 26.7365 61.1482 26.5987 60.4375C25.9359 56.9994 25.0106 55.4152 23.8425 54.5686C23.0091 53.9675 22.0182 53.7017 20.7516 53.5423C19.1241 53.3375 16.9453 53.2804 13.9331 52.2298C12.8634 51.8557 12.3844 50.7657 12.0497 49.3226C11.3803 46.4475 11.5312 42.2757 11.5312 37.7188C11.5312 37.1255 11.1309 36.6064 10.56 36.4515C9.44439 36.1497 7.66592 35.8163 6.43217 35.1659C6.19592 35.0413 5.9794 34.9074 5.81534 34.7492C5.7169 34.6573 5.625 34.5668 5.625 34.4375C5.625 34.0411 5.81525 33.6598 6.05807 33.2398C6.419 32.6276 6.91127 31.9792 7.44939 31.2475C9.27377 28.759 11.5312 25.4351 11.5312 20C11.5312 16.7699 13.0669 13.2347 15.7051 10.1372C19.7738 5.35316 26.4675 1.625 34.5 1.625C50.7947 1.625 58.125 13.5235 58.125 23.9375C58.125 29.8857 55.5788 34.3699 53.5772 38.5187C52.1007 41.5801 50.9062 44.4814 50.9062 47.5625C50.9062 53.3231 52.921 61.0202 52.921 61.0202C53.1047 61.7211 53.82 62.1411 54.5222 61.9573C55.2244 61.7736 55.6443 61.055 55.454 60.3548ZM38.4375 12.125H35.8125V9.5C35.8125 8.7755 35.2219 8.1875 34.5 8.1875C33.7781 8.1875 33.1875 8.7755 33.1875 9.5V12.125H30.5625V9.5C30.5625 8.7755 29.9719 8.1875 29.25 8.1875C28.5281 8.1875 27.9375 8.7755 27.9375 9.5V12.125H25.9688C24.9253 12.125 23.9213 12.5398 23.1863 13.278C22.4447 14.017 22.0312 15.0184 22.0312 16.0625V18.0312H19.4062C18.6844 18.0312 18.0938 18.6192 18.0938 19.3438C18.0938 20.0683 18.6844 20.6562 19.4062 20.6562H22.0312V23.2812H19.4062C18.6844 23.2812 18.0938 23.8692 18.0938 24.5938C18.0938 25.3183 18.6844 25.9062 19.4062 25.9062H22.0312V28.5312H19.4062C18.6844 28.5312 18.0938 29.1192 18.0938 29.8438C18.0938 30.5683 18.6844 31.1562 19.4062 31.1562H22.0312V33.125C22.0312 34.1691 22.4447 35.1705 23.1863 35.9095C23.9213 36.6477 24.9253 37.0625 25.9688 37.0625H27.9375V39.6875C27.9375 40.412 28.5281 41 29.25 41C29.9719 41 30.5625 40.412 30.5625 39.6875V37.0625H33.1875V39.6875C33.1875 40.412 33.7781 41 34.5 41C35.2219 41 35.8125 40.412 35.8125 39.6875V37.0625H38.4375V39.6875C38.4375 40.412 39.0281 41 39.75 41C40.4719 41 41.0625 40.412 41.0625 39.6875V37.0625H43.0312C44.0747 37.0625 45.0787 36.6477 45.8137 35.9095C46.5553 35.1705 46.9688 34.1691 46.9688 33.125V31.1562H49.5938C50.3156 31.1562 50.9062 30.5683 50.9062 29.8438C50.9062 29.1192 50.3156 28.5312 49.5938 28.5312H46.9688V25.9062H49.5938C50.3156 25.9062 50.9062 25.3183 50.9062 24.5938C50.9062 23.8692 50.3156 23.2812 49.5938 23.2812H46.9688V20.6562H49.5938C50.3156 20.6562 50.9062 20.0683 50.9062 19.3438C50.9062 18.6192 50.3156 18.0312 49.5938 18.0312H46.9688V16.0625C46.9688 15.0184 46.5553 14.017 45.8137 13.278C45.0787 12.5398 44.0747 12.125 43.0312 12.125H41.0625V9.5C41.0625 8.7755 40.4719 8.1875 39.75 8.1875C39.0281 8.1875 38.4375 8.7755 38.4375 9.5V12.125ZM43.0312 34.4375H25.9688C25.6209 34.4375 25.2863 34.299 25.0435 34.0529C24.7941 33.8068 24.6562 33.4728 24.6562 33.125V16.0625C24.6562 15.7147 24.7941 15.3807 25.0435 15.1346C25.2863 14.8885 25.6209 14.75 25.9688 14.75H43.0312C43.3791 14.75 43.7137 14.8885 43.9565 15.1346C44.2059 15.3807 44.3438 15.7147 44.3438 16.0625V33.125C44.3438 33.4728 44.2059 33.8068 43.9565 34.0529C43.7137 34.299 43.3791 34.4375 43.0312 34.4375ZM27.2812 21.9688V30.5C27.2812 31.2245 27.8719 31.8125 28.5938 31.8125C29.3156 31.8125 29.9062 31.2245 29.9062 30.5V27.2188H33.8438V30.5C33.8438 31.2245 34.4344 31.8125 35.1562 31.8125C35.8781 31.8125 36.4688 31.2245 36.4688 30.5V21.9688C36.4688 20.7501 35.9831 19.582 35.1234 18.7203C34.2637 17.8587 33.0956 17.375 31.875 17.375C30.6544 17.375 29.4863 17.8587 28.6266 18.7203C27.7669 19.582 27.2812 20.7501 27.2812 21.9688ZM41.7188 30.5V18.6875C41.7188 17.963 41.1281 17.375 40.4062 17.375C39.6844 17.375 39.0938 17.963 39.0938 18.6875V30.5C39.0938 31.2245 39.6844 31.8125 40.4062 31.8125C41.1281 31.8125 41.7188 31.2245 41.7188 30.5ZM33.8438 24.5938V21.9688C33.8438 21.4464 33.6338 20.9457 33.2663 20.5768C32.8988 20.2074 32.4 20 31.875 20C31.35 20 30.8512 20.2074 30.4837 20.5768C30.1162 20.9457 29.9062 21.4464 29.9062 21.9688V24.5938H33.8438Z" fill="#CAA866"/>
</g>
<defs>
<clipPath id="clip0_2003_945">
<rect width="63.0038" height="62.9987" fill="white"/>
</clipPath>
</defs>
</svg>
