<svg width="63" height="63" viewBox="0 0 63 63" fill="none" xmlns="http://www.w3.org/2000/svg">
<path d="M17.75 22.6562H15.7812C15.2379 22.6562 14.7969 23.0963 14.7969 23.6406V31.5156C14.7969 32.06 15.2379 32.5 15.7812 32.5H17.75C19.3782 32.5 20.7031 31.175 20.7031 29.5469C20.7031 28.7909 20.4177 28.1008 19.9491 27.5781C20.4177 27.0554 20.7031 26.3654 20.7031 25.6094C20.7031 23.9812 19.3782 22.6562 17.75 22.6562ZM17.75 30.5312H16.7656V28.5625H17.75C18.2924 28.5625 18.7344 29.0035 18.7344 29.5469C18.7344 30.0903 18.2924 30.5312 17.75 30.5312ZM17.75 26.5938H16.7656V24.625H17.75C18.2924 24.625 18.7344 25.066 18.7344 25.6094C18.7344 26.1528 18.2924 26.5938 17.75 26.5938Z" fill="#CAA866"/>
<path d="M27.5938 25.6094C27.5938 23.9812 26.2688 22.6562 24.6406 22.6562H22.6719C22.1285 22.6562 21.6875 23.0963 21.6875 23.6406V32.5H23.6562V28.5625H24.2065C25.121 29.6079 25.625 30.9289 25.625 32.3307V32.5H27.5938V32.3307C27.5938 30.7832 27.1409 29.3067 26.2983 28.0506C27.0789 27.5191 27.5938 26.6233 27.5938 25.6094ZM23.6562 24.625H24.6406C25.183 24.625 25.625 25.066 25.625 25.6094C25.625 26.1528 25.183 26.5938 24.6406 26.5938H23.6562V24.625Z" fill="#CAA866"/>
<path d="M31.5312 22.6562C29.9031 22.6562 28.5781 23.9812 28.5781 25.6094V32.5H30.5469V29.5469H32.5156V32.5H34.4844V25.6094C34.4844 23.9812 33.1594 22.6562 31.5312 22.6562ZM30.5469 27.5781V25.6094C30.5469 25.066 30.9889 24.625 31.5312 24.625C32.0736 24.625 32.5156 25.066 32.5156 25.6094V27.5781H30.5469Z" fill="#CAA866"/>
<path d="M39.4062 27.3458L37.3341 23.2006C37.1294 22.7921 36.6766 22.5795 36.2267 22.6828C35.7828 22.7882 35.4688 23.1849 35.4688 23.6416V32.501H37.4375V27.8114L39.5096 31.9566C39.6789 32.2962 40.0235 32.501 40.3906 32.501C40.4654 32.501 40.5412 32.4921 40.617 32.4754C41.061 32.3701 41.375 31.9734 41.375 31.5166V22.6572H39.4062V27.3458Z" fill="#CAA866"/>
<path d="M45.3125 22.6562H43.3438C42.8004 22.6562 42.3594 23.0963 42.3594 23.6406V31.5156C42.3594 32.06 42.8004 32.5 43.3438 32.5H45.3125C46.9407 32.5 48.2656 31.175 48.2656 29.5469V25.6094C48.2656 23.9812 46.9407 22.6562 45.3125 22.6562ZM46.2969 29.5469C46.2969 30.0903 45.8549 30.5312 45.3125 30.5312H44.3281V24.625H45.3125C45.8549 24.625 46.2969 25.066 46.2969 25.6094V29.5469Z" fill="#CAA866"/>
<path d="M57.125 12.8125C57.6684 12.8125 58.1094 12.3725 58.1094 11.8281V9.85938H61.0625V7.89062H58.1094V5.92188C58.1094 5.37752 57.6684 4.9375 57.125 4.9375H55.1562V1H53.1875V4.9375H51.2188C50.6754 4.9375 50.2344 5.37752 50.2344 5.92188V7.89062H12.8281V5.92188C12.8281 5.37752 12.3871 4.9375 11.8438 4.9375H9.875V1H7.90625V4.9375H5.9375C5.39412 4.9375 4.95312 5.37752 4.95312 5.92188V7.89062H2V9.85938H4.95312V11.8281C4.95312 12.3725 5.39412 12.8125 5.9375 12.8125H7.90625V48.25H5.9375C5.39412 48.25 4.95312 48.69 4.95312 49.2344V51.2031H2V53.1719H4.95312V55.1406C4.95312 55.685 5.39412 56.125 5.9375 56.125H7.90625V60.0625H9.875V56.125H11.8438C12.3871 56.125 12.8281 55.685 12.8281 55.1406V53.1719H33.0925L37.7259 57.8053C37.9179 57.9973 38.1699 58.0938 38.4219 58.0938C38.6739 58.0938 38.9259 57.9973 39.1178 57.8053L43.7513 53.1719H50.2344V55.1406C50.2344 55.685 50.6754 56.125 51.2188 56.125H53.1875V60.0625H55.1562V56.125H57.125C57.6684 56.125 58.1094 55.685 58.1094 55.1406V53.1719H61.0625V51.2031H58.1094V49.2344C58.1094 48.69 57.6684 48.25 57.125 48.25H55.1562V12.8125H57.125ZM52.2031 6.90625H56.1406V10.8438H52.2031V6.90625ZM6.92188 6.90625H10.8594V10.8438H6.92188V6.90625ZM10.8594 54.1562H6.92188V50.2188H10.8594V54.1562ZM30.1393 45.2969C31.3009 45.2969 32.3916 44.845 33.2126 44.0241C34.0335 43.2031 34.4844 42.1124 34.4844 40.9518V40.375H32.5156V40.9518C32.5156 41.2403 32.4585 41.5188 32.3601 41.7807L27.4618 36.8824L36.4807 38.2704C36.647 40.7914 37.5546 43.2011 39.0844 45.2102L34.3987 49.8959C32.3896 48.3662 29.9789 47.4586 27.4579 47.2922L26.0709 38.2743L30.9682 43.1716C30.7054 43.2691 30.4278 43.3271 30.1393 43.3271H29.5625V45.2959L30.1393 45.2969ZM38.4219 55.7175L34.8919 52.1875L41.375 45.7044L44.905 49.2344L38.4219 55.7175ZM56.1406 54.1562H52.2031V50.2188H56.1406V54.1562ZM53.1875 48.25H51.2188C50.6754 48.25 50.2344 48.69 50.2344 49.2344V51.2031H45.72L46.9928 49.9303C47.3777 49.5454 47.3777 48.9233 46.9928 48.5384L42.071 43.6165C41.6861 43.2317 41.0639 43.2317 40.679 43.6165L40.49 43.8055C39.1513 41.9549 38.4219 39.7253 38.4219 37.4219C38.4219 36.9366 38.0675 36.5231 37.5871 36.4493L24.7903 34.4806C24.4831 34.4343 24.1671 34.5357 23.9447 34.7572C23.7232 34.9796 23.6198 35.2927 23.6681 35.6027L25.6368 48.3996C25.7106 48.879 26.1241 49.2344 26.6094 49.2344C28.8528 49.2344 31.0223 49.9313 32.8434 51.2031H12.8281V49.2344C12.8281 48.69 12.3871 48.25 11.8438 48.25H9.875V12.8125H11.8438C12.3871 12.8125 12.8281 12.3725 12.8281 11.8281V9.85938H50.2344V11.8281C50.2344 12.3725 50.6754 12.8125 51.2188 12.8125H53.1875V48.25Z" fill="#CAA866"/>
</svg>
