<svg width="63" height="63" viewBox="0 0 63 63" fill="none" xmlns="http://www.w3.org/2000/svg">
<path d="M40.46 18.9542C40.2154 18.9542 39.982 18.8541 39.8078 18.6725C39.6596 18.5169 39.5706 18.3353 39.4039 18.0092C39.1148 17.4311 38.5737 16.3601 37.462 14.9481C36.9987 14.3626 36.8134 14.1625 36.6837 14.0365C36.5837 13.9364 36.3243 13.6955 35.9574 13.425C35.6757 13.7548 35.3496 14.0365 34.9901 14.2588C33.9117 14.9333 32.8481 14.9073 31.9958 14.8851H31.9365C31.9106 14.8851 29.309 14.8258 26.537 15.0185L26.4036 15.0259C25.4883 15.0889 24.5433 15.1519 23.8169 15.5411C23.1017 15.9228 22.6829 16.7047 22.4235 18.15V18.1537C22.3605 18.4946 22.1196 18.7763 21.7972 18.8949C21.397 19.0394 20.9671 18.9023 20.704 18.5502C20.2037 17.8832 20.0999 16.9678 20.0295 16.3008L20.0258 16.2785C19.9443 15.5336 19.7071 13.0285 20.0814 12.1316C20.2852 11.6462 20.893 10.3899 22.1715 9.15582C24.6915 6.72105 28.8532 5.76123 29.6611 5.59447C31.2398 5.26835 32.7518 5.14976 34.1489 5.24611C35.131 5.31282 35.9648 5.43882 36.6949 5.62041C37.6436 5.86129 38.3847 6.32452 38.8369 6.95823C39.074 7.28805 39.2223 7.6327 39.352 7.94029C39.4817 8.24417 39.5929 8.50729 39.7596 8.68517C39.9746 8.91494 40.2562 9.11505 40.5564 9.32999C40.8899 9.56717 41.2346 9.81547 41.557 10.1416C42.3426 10.9458 43.2357 12.2873 43.3691 13.6473C43.4951 14.9073 42.943 16.008 42.4464 16.827C42.3871 16.9233 42.1091 17.3569 41.8312 17.7646C41.2827 18.5688 41.0381 18.8986 40.5601 18.9505C40.5267 18.9542 40.4934 18.9542 40.46 18.9542ZM35.7461 11.4016C36.1723 11.4016 36.5392 11.6573 36.769 11.8203L36.7949 11.8389C37.3471 12.2243 37.7436 12.5875 37.9289 12.7691C38.129 12.9655 38.3625 13.2249 38.8591 13.8512C39.6855 14.8999 40.2266 15.7782 40.586 16.4305C40.7417 16.197 40.8751 15.9895 40.927 15.9079C41.279 15.3261 41.6756 14.5627 41.6014 13.8252C41.531 13.1063 40.99 12.102 40.2859 11.3868C40.0746 11.1718 39.8078 10.9828 39.5224 10.779C39.1667 10.5233 38.7961 10.2602 38.4589 9.90441C38.0771 9.49676 37.8844 9.04464 37.714 8.64441C37.6102 8.40352 37.5139 8.17376 37.3879 7.99958C37.1247 7.63641 36.6281 7.4437 36.2539 7.35105C35.6276 7.1917 34.8975 7.08794 34.0229 7.02494C32.7889 6.9397 31.4399 7.04347 30.0206 7.33994C28.0194 7.755 25.088 8.81488 23.4056 10.4418C22.3494 11.4646 21.8565 12.5059 21.7231 12.8172C21.6675 12.9988 21.6082 13.7733 21.7009 15.0926C22.0196 14.6553 22.4346 14.2662 22.9757 13.9772C24.0393 13.4102 25.2289 13.3286 26.2813 13.2582L26.411 13.2508C29.272 13.0544 31.8661 13.1137 31.9773 13.1137H32.0366C32.7481 13.1322 33.4189 13.1471 34.0451 12.7542C34.3713 12.5504 34.6529 12.2576 34.879 11.8871C35.0235 11.6499 35.2496 11.4868 35.5201 11.4275C35.6016 11.409 35.6757 11.4016 35.7461 11.4016Z" fill="#CAA866"/>
<path d="M31.514 33.5702C30.9248 33.5702 30.254 33.5146 29.5277 33.3552C28.8829 33.2144 27.2078 32.7363 25.5587 31.3874C24.7693 30.7426 23.3203 29.3158 22.4976 27.0256C22.2753 26.403 22.127 25.7359 22.0455 25.2764C21.4711 25.017 20.9449 24.6279 20.5001 24.1313C19.9294 23.4939 19.5292 22.7193 19.3476 21.8966C18.977 20.2216 19.5477 18.5799 20.9078 17.3903C21.2784 17.0679 21.838 17.1049 22.1641 17.4755C22.4865 17.8461 22.4494 18.4057 22.0789 18.7318C20.9041 19.7546 20.9523 20.9146 21.0857 21.5149C21.3229 22.5859 22.127 23.4939 23.0906 23.7718C23.4278 23.8682 23.6761 24.1572 23.7243 24.5056C23.791 24.9985 23.9466 25.7952 24.1727 26.4215C24.8768 28.3782 26.1627 29.5826 26.6853 30.0088C28.0342 31.1132 29.3906 31.4986 29.9094 31.6135C31.388 31.9396 32.6073 31.7246 33.0631 31.6172C34.3083 31.3244 35.1458 30.7463 35.5053 30.498C35.7647 30.3201 36.4429 29.8161 37.1284 29.0045C38.1216 27.8298 38.8554 26.2288 39.2519 24.3759C39.3297 24.0201 39.6151 23.7459 39.9746 23.6829C40.36 23.6199 40.7787 23.2863 41.1234 22.7712C41.5014 22.2116 41.746 21.5075 41.7941 20.8405C41.846 20.1289 41.7015 19.2136 40.7306 18.9023C40.2636 18.7503 40.0042 18.2501 40.1561 17.7831C40.3081 17.3162 40.8084 17.0568 41.2753 17.2087C42.1091 17.4755 42.7614 18.0129 43.1542 18.7541C43.484 19.3803 43.6286 20.1438 43.5693 20.9702C43.4989 21.9374 43.1468 22.9565 42.602 23.7681C42.124 24.4796 41.5236 24.9948 40.8751 25.2653C40.3933 27.2072 39.5929 28.8489 38.4922 30.1533C37.6954 31.0946 36.9135 31.6913 36.5207 31.9655C36.1167 32.2435 35.0494 32.9772 33.4781 33.3478C33.052 33.4516 32.3701 33.5702 31.514 33.5702Z" fill="#CAA866"/>
<path d="M26.1553 36.9351C26.0219 36.9351 25.8885 36.9055 25.7625 36.8425C25.3215 36.6238 25.1436 36.0902 25.3623 35.6492C25.6328 35.1081 26.0886 34.0186 26.1183 32.8216C26.1294 32.3509 26.0701 32.136 25.97 31.7802C25.9441 31.6839 25.9107 31.5727 25.8811 31.4541C25.7588 30.9798 26.0441 30.4943 26.5222 30.372C26.9966 30.2497 27.482 30.5351 27.6043 31.0131C27.6303 31.1095 27.6562 31.2058 27.6821 31.2948C27.797 31.7024 27.9193 32.1249 27.8971 32.8661C27.8563 34.404 27.2893 35.7641 26.9558 36.4385C26.7964 36.7535 26.4814 36.9351 26.1553 36.9351Z" fill="#CAA866"/>
<path d="M36.643 37.2501C36.3317 37.2501 36.0278 37.0871 35.8647 36.7943C35.357 35.8901 34.7456 34.4744 34.7011 32.8661C34.6826 32.1249 34.8011 31.7024 34.916 31.2948C34.9271 31.2577 34.9383 31.2169 34.9494 31.1762C35.0828 30.7018 35.572 30.4276 36.0463 30.5573C36.5207 30.6907 36.7949 31.1799 36.6652 31.6542C36.6541 31.6987 36.643 31.7395 36.6281 31.7802C36.5281 32.136 36.4651 32.3509 36.4799 32.8216C36.5133 34.0668 37.0061 35.197 37.4175 35.9271C37.6584 36.357 37.5064 36.898 37.0766 37.1389C36.9394 37.213 36.7912 37.2501 36.643 37.2501Z" fill="#CAA866"/>
<path d="M52.9303 58.9221H9.8902C9.40103 58.9221 9.00079 58.5256 9.00079 58.0364C8.98968 54.9753 9.1342 47.3227 10.6573 42.405C11.0613 41.1005 11.5541 40.0332 12.2027 39.0512C12.7474 38.2285 14.315 36.1569 17.1241 34.7301C19.696 33.4219 22.1567 33.2292 23.765 33.2959C23.98 33.3033 24.1801 33.3886 24.3357 33.5368L31.2213 39.9999L38.4885 33.522C38.6404 33.3849 38.8369 33.3071 39.0444 33.2959C40.6527 33.2292 43.1134 33.4219 45.6853 34.7301C48.4907 36.1569 50.062 38.2285 50.6067 39.0512C51.2553 40.0332 51.7481 41.0968 52.1521 42.405C53.6789 47.3227 53.8197 54.9753 53.8086 58.0364C53.816 58.5256 53.4195 58.9221 52.9303 58.9221ZM52.0372 57.1433C52.015 54.1008 51.8 47.2523 50.4622 42.9312C50.1027 41.775 49.6914 40.8819 49.1318 40.0332C48.6649 39.3254 47.3159 37.5503 44.8849 36.3162C42.817 35.2638 40.8269 35.0414 39.4372 35.0636L31.8068 41.8676C31.4621 42.1752 30.9433 42.1678 30.6061 41.8528L23.3722 35.0636C21.9788 35.0451 19.9961 35.2675 17.9357 36.3162C15.5046 37.5503 14.1557 39.3291 13.6887 40.0332C13.1254 40.8819 12.7178 41.7787 12.3583 42.9312C11.0168 47.2486 10.8056 54.1008 10.7833 57.1433H52.0372Z" fill="#CAA866"/>
<path d="M18.221 58.9221C17.7281 58.9221 17.3316 58.5256 17.3316 58.0327V47.9082C17.3316 47.4153 17.7281 47.0188 18.221 47.0188C18.7139 47.0188 19.1104 47.4153 19.1104 47.9082V58.0327C19.1104 58.5256 18.7102 58.9221 18.221 58.9221Z" fill="#CAA866"/>
<path d="M45.3073 58.9221C44.8144 58.9221 44.4179 58.5256 44.4179 58.0327V47.9082C44.4179 47.4153 44.8144 47.0188 45.3073 47.0188C45.8002 47.0188 46.1967 47.4153 46.1967 47.9082V58.0327C46.1967 58.5256 45.7965 58.9221 45.3073 58.9221Z" fill="#CAA866"/>
<path d="M45.3333 25.0059H44.6477C44.1548 25.0059 43.7583 24.6093 43.7583 24.1165V17.0864C43.7583 16.5935 44.1548 16.197 44.6477 16.197H45.3333C47.6494 16.197 49.532 18.0796 49.532 20.3958V20.8071C49.532 23.1196 47.6494 25.0059 45.3333 25.0059ZM45.5371 17.9832V23.2159C46.7749 23.1122 47.7532 22.0708 47.7532 20.8034V20.3921C47.7532 19.1283 46.7786 18.087 45.5371 17.9832Z" fill="#CAA866"/>
<path d="M18.1729 25.0059H17.4873C15.1711 25.0059 13.2885 23.1233 13.2885 20.8071V20.3958C13.2885 18.0796 15.1711 16.197 17.4873 16.197H18.1729C18.6657 16.197 19.0623 16.5935 19.0623 17.0864V24.1165C19.0623 24.6056 18.662 25.0059 18.1729 25.0059ZM17.2834 17.9832C16.0457 18.087 15.0673 19.1283 15.0673 20.3958V20.8071C15.0673 22.0708 16.0457 23.1159 17.2834 23.2196V17.9832Z" fill="#CAA866"/>
<path d="M44.4327 28.2745H35.0013C34.5084 28.2745 34.1119 27.8779 34.1119 27.3851C34.1119 26.8922 34.5084 26.4956 35.0013 26.4956H44.4364C45.1072 26.4956 45.652 25.9509 45.652 25.2801V23.8978C45.652 23.4049 46.0485 23.0084 46.5414 23.0084C47.0343 23.0084 47.4308 23.4049 47.4308 23.8978V25.2801C47.4271 26.9292 46.0856 28.2745 44.4327 28.2745Z" fill="#CAA866"/>
<path d="M46.5303 18.0611C46.0633 18.0611 45.6705 17.6942 45.6446 17.2235C45.4481 13.7437 43.9658 10.4566 41.4791 7.96623C38.7776 5.26464 35.2014 3.77858 31.4103 3.77858C23.8577 3.77858 17.6059 9.68576 17.176 17.2235C17.1463 17.7127 16.7276 18.0907 16.2384 18.0611C15.7492 18.0314 15.3712 17.6126 15.4009 17.1235C15.6343 13.0507 17.4057 9.24476 20.3927 6.41347C23.3907 3.56735 27.3041 1.99976 31.4103 1.99976C33.5671 1.99976 35.6609 2.42594 37.6398 3.26717C39.5484 4.07876 41.2642 5.235 42.7391 6.70994C45.5371 9.50788 47.201 13.2063 47.4234 17.1235C47.453 17.6126 47.075 18.0351 46.5858 18.0611C46.5636 18.0611 46.5488 18.0611 46.5303 18.0611Z" fill="#CAA866"/>
</svg>
