<svg width="63" height="64" viewBox="0 0 63 64" fill="none" xmlns="http://www.w3.org/2000/svg">
<path d="M54.496 41.4109C54.7496 40.0185 54.8792 38.6013 54.8792 37.1807C54.8792 24.4926 44.8012 14.1157 32.2294 13.629V9.39891H33.5264C36.9761 9.39891 39.7827 6.59239 39.7827 3.14269V1.41507C39.7827 0.634814 39.1479 0 38.3676 0H36.64C33.7233 0 31.2666 2.00657 30.5771 4.7117C29.4328 3.46754 27.7928 2.68618 25.9731 2.68618H24.2455C23.4652 2.68618 22.8304 3.32099 22.8304 4.10125V5.82887C22.8304 9.27857 25.637 12.0851 29.0867 12.0851H30.3837V13.6292C15.9689 14.1618 5.54511 27.2901 8.1171 41.4109C6.40203 41.482 4.99976 42.9569 4.99976 44.6794C4.99976 46.2058 6.08382 47.5491 7.57777 47.8736L9.34772 48.2573C7.87494 49.405 7.6516 51.6252 8.991 52.9646C9.33812 53.3116 9.74812 53.5575 10.1846 53.7037C9.95325 54.141 9.8302 54.6309 9.8302 55.1398C9.8302 55.9616 10.1501 56.7341 10.731 57.315C11.3053 57.8892 12.0666 58.208 12.8776 58.2153C12.8853 58.993 13.1844 59.7683 13.7764 60.3603C14.743 61.3271 16.2081 61.5251 17.3859 60.9067C17.7893 62.1327 19.0287 63 20.3021 63C21.0897 63 21.8778 62.7 22.4774 62.1004L24.7496 59.8283C26.8709 60.4418 29.0737 60.7534 31.3066 60.7534C33.5394 60.7534 35.7423 60.4418 37.8635 59.8283L40.1358 62.1004C41.3352 63.2998 43.2867 63.2998 44.4861 62.1004C44.8274 61.759 45.0779 61.3513 45.2271 60.9066C46.4023 61.524 47.8712 61.3257 48.8366 60.3601C49.4286 59.7681 49.7277 58.9928 49.7354 58.2151C50.5464 58.2077 51.3078 57.889 51.882 57.3147C52.8222 56.3744 53.0466 54.8689 52.4293 53.7049C52.8736 53.5557 53.2809 53.3054 53.622 52.9643C54.9486 51.6375 54.7126 49.378 53.2654 48.257L55.0356 47.8734C56.5293 47.5489 57.6132 46.2056 57.6132 44.6791C57.6134 42.9419 56.1949 41.4811 54.496 41.4109ZM32.2294 6.25622C32.2294 3.82426 34.208 1.84575 36.64 1.84575H37.937V3.14269C37.937 5.50057 36.0772 7.43208 33.7474 7.54763L35.0854 6.3629C35.4671 6.02501 35.5026 5.44175 35.1647 5.06018C34.8268 4.67847 34.2435 4.64304 33.8619 4.98093L32.2294 6.42627V6.25622ZM28.7811 7.33167C28.4206 6.97126 27.8363 6.97126 27.4759 7.33167C27.1155 7.69209 27.1155 8.27645 27.4759 8.63674L29.0784 10.2392C26.6502 10.2345 24.6763 8.25811 24.6763 5.82899V4.53192H25.9732C28.4025 4.53192 30.379 6.50589 30.3836 8.93403L28.7811 7.33167ZM7.96919 46.07C7.31814 45.9286 6.8455 45.3437 6.8455 44.6794C6.8455 43.798 7.6767 43.109 8.5383 43.2808C8.82513 44.3548 9.18726 45.4071 9.62212 46.4282L7.96919 46.07ZM10.2961 51.6592C9.82269 51.1859 9.82048 50.3901 10.2962 49.9191C10.2962 49.9191 13.9402 46.2751 13.9505 46.2647C14.4236 45.7916 15.2166 45.7908 15.6907 46.2647C16.1705 46.7445 16.1705 47.525 15.6908 48.0048L12.0362 51.6594C11.5647 52.1353 10.7682 52.1314 10.2961 51.6592ZM12.0364 56.0098C11.5566 55.53 11.5566 54.7494 12.0364 54.2696L18.3011 48.0049C18.7714 47.529 19.5693 47.5286 20.0411 48.0049C20.5151 48.4743 20.5171 49.2743 20.0411 49.7451L13.7764 56.0098C13.305 56.4857 12.5084 56.4818 12.0364 56.0098ZM16.8219 59.0551C16.3421 59.5348 15.5615 59.535 15.0816 59.0551C14.6018 58.5754 14.6018 57.7946 15.0816 57.3149L21.3461 51.0503C21.8258 50.5706 22.6065 50.5705 23.0863 51.0503C23.5661 51.53 23.5661 52.3107 23.0863 52.7904L16.8219 59.0551ZM24.8266 57.141L21.1722 60.7954C20.6925 61.2751 19.912 61.2752 19.432 60.7954C18.9588 60.3223 18.9564 59.5267 19.4318 59.0556L23.0865 55.4009C23.5568 54.925 24.3525 54.927 24.8266 55.4009C25.3064 55.8805 25.3064 56.6612 24.8266 57.141ZM26.1317 54.0956C25.7904 53.7543 25.3827 53.5039 24.938 53.3547C25.5491 52.1935 25.367 50.7207 24.3917 49.7453C23.7997 49.1533 23.0243 48.8541 22.2467 48.8466C22.2393 48.0357 21.9206 47.2742 21.3462 46.7C20.7651 46.1189 19.9928 45.799 19.171 45.799C18.6622 45.799 18.1724 45.922 17.735 46.1534C17.5889 45.7169 17.3429 45.3068 16.9959 44.9598C16.4148 44.3788 15.6422 44.0588 14.8205 44.0588C13.9988 44.0588 13.2262 44.3789 12.6452 44.9599L11.4953 46.1099C10.2393 43.3219 9.57954 40.2607 9.57954 37.1811C9.57954 32.7013 10.9428 28.5341 13.2758 25.0719C15.2016 26.4075 16.6366 28.1806 17.18 29.9349C17.527 31.0538 17.4555 31.9568 17.3567 33.2063C17.2357 34.7365 17.085 36.6406 17.6644 39.6655C17.9464 41.1395 18.2483 42.0678 18.4797 42.712C18.654 43.1971 19.191 43.4371 19.6604 43.2685C20.14 43.0962 20.3892 42.5676 20.2168 42.0879C20.008 41.5069 19.7353 40.6671 19.4772 39.3185C18.9445 36.5382 19.0785 34.8455 19.1967 33.3521C19.3031 32.0073 19.395 30.846 18.943 29.3886C18.2751 27.232 16.6324 25.1583 14.3738 23.5848C17.2641 19.9929 21.2706 17.3352 25.8627 16.1462C26.3934 18.3842 26.8299 20.79 27.1957 23.138C27.7857 26.9241 28.2517 29.9146 30.5172 30.6442C31.8182 31.0633 32.9321 30.4334 33.9147 29.878C34.831 29.3602 35.6964 28.8712 36.7461 29.0748C38.3482 29.3855 39.3965 31.937 40.8606 33.1404C43.0128 34.9095 46.1588 35.6122 49.308 35.3516C49.8161 35.3095 50.1936 34.8636 50.1515 34.3556C50.1093 33.8477 49.6604 33.47 49.1555 33.5122C46.3472 33.7444 43.685 33.0729 42.0326 31.7146C40.1995 30.2077 39.8033 27.7881 37.0977 27.2629C35.3802 26.9296 34.0642 27.6734 33.0066 28.2712C32.1432 28.7591 31.5887 29.0503 31.0829 28.8874C29.9002 28.5064 29.4724 25.7608 29.0193 22.8539C28.6486 20.4752 28.2034 18.0284 27.6681 15.7619C28.8515 15.5616 30.0667 15.4557 31.3063 15.4557C43.2866 15.4557 53.0332 25.2018 53.0332 37.1813C53.0332 40.2609 52.3734 43.3221 51.1175 46.1102L49.9676 44.9603C49.3865 44.3792 48.614 44.0592 47.7923 44.0592C46.9706 44.0592 46.198 44.3792 45.617 44.9602C45.27 45.3072 45.024 45.7173 44.8777 46.1538C44.4098 45.9061 43.8756 45.7826 43.333 45.8019C41.2564 43.9188 37.0113 40.2573 33.9799 41.7103C32.3858 42.4739 32.1424 44.0562 31.8607 45.8886C31.6575 47.2094 31.4273 48.7065 30.69 50.3852C29.8669 52.2603 28.6092 53.877 26.8714 55.2927C26.7259 54.8546 26.4797 54.4434 26.1317 54.0956ZM36.4813 54.0956C35.3241 55.2529 35.2838 57.11 36.3595 58.3165C34.7131 58.7086 33.0197 58.9076 31.3066 58.9076C29.5935 58.9076 27.9001 58.7086 26.2536 58.3165C26.4108 58.1401 26.5437 57.9499 26.6532 57.7501C29.3506 55.9223 31.2271 53.7542 32.3804 51.1267C33.2151 49.2262 33.4758 47.5307 33.6852 46.1685C33.9398 44.5129 34.0928 43.7025 34.7778 43.3743C36.4735 42.5619 39.5889 44.9779 41.4124 46.5642C40.7515 47.1452 40.3741 47.9671 40.3663 48.8463C39.5887 48.854 38.8135 49.1531 38.2213 49.7452C37.2459 50.7206 37.0639 52.1935 37.675 53.3546C37.2304 53.5039 36.8228 53.7543 36.4813 54.0956ZM43.181 60.7953C42.7013 61.275 41.9207 61.275 41.4409 60.7953L37.7865 57.1409C37.3067 56.6611 37.3067 55.8805 37.7865 55.4007C38.2569 54.9247 39.0548 54.9241 39.5267 55.4007L43.1816 59.0556C43.6551 59.5252 43.6542 60.3222 43.181 60.7953ZM47.5315 59.0551C47.0519 59.535 46.2711 59.5348 45.7914 59.0551C44.7859 58.0498 40.5862 53.8498 39.5268 52.7904C39.047 52.3107 39.047 51.53 39.5268 51.0503C40.0065 50.5705 40.7873 50.5707 41.2669 51.0503L47.5315 57.315C48.0113 57.7947 48.0113 58.5754 47.5315 59.0551ZM50.5769 56.0098C50.1033 56.4834 49.3065 56.4841 48.8367 56.0098L42.572 49.7451C42.0964 49.2742 42.0964 48.4759 42.572 48.005C43.0423 47.5291 43.8404 47.5286 44.3122 48.005C46.2807 49.9931 48.6942 52.3873 50.5769 54.2697C51.0567 54.7494 51.0567 55.53 50.5769 56.0098ZM52.3169 51.6594C51.8373 52.139 51.0567 52.139 50.5769 51.6594L46.9223 48.0048C46.4427 47.525 46.4427 46.7445 46.9224 46.2647C47.3929 45.7888 48.1884 45.7905 48.6626 46.2647C49.3805 46.9826 51.5562 49.1655 52.3171 49.9192C52.791 50.3886 52.7903 51.186 52.3169 51.6594ZM54.6443 46.0698L52.991 46.4282C53.4259 45.407 53.788 44.3546 54.0748 43.2807C54.9276 43.1089 55.7676 43.798 55.7676 44.6792C55.7676 45.3437 55.295 45.9284 54.6443 46.0698Z" fill="#CAA866"/>
</svg>
