<svg width="22" height="22" viewBox="0 0 22 22" fill="none" xmlns="http://www.w3.org/2000/svg">
<g clip-path="url(#clip0_891_2298)">
<circle cx="11" cy="11" r="11" fill="#CAA866"/>
<path d="M6.24733 10.4803C6.01115 10.481 5.77998 10.5503 5.58056 10.6801C5.38115 10.81 5.22164 10.995 5.1205 11.214C5.01936 11.4329 4.98071 11.6768 5.00902 11.9173C5.03734 12.1579 5.13147 12.3853 5.28051 12.5732L8.4578 16.5659C8.57109 16.7102 8.71631 16.8247 8.88139 16.8999C9.04647 16.975 9.22665 17.0087 9.40697 16.9981C9.79262 16.9768 10.1408 16.7652 10.3628 16.4172L16.9628 5.5134C16.9639 5.51159 16.965 5.50978 16.9662 5.508C17.0281 5.41046 17.008 5.21716 16.8802 5.09573C16.8451 5.06238 16.8037 5.03676 16.7586 5.02044C16.7135 5.00413 16.6655 4.99747 16.6178 5.00086C16.5701 5.00426 16.5235 5.01764 16.481 5.04019C16.4385 5.06274 16.401 5.09398 16.3707 5.13198C16.3683 5.13497 16.3659 5.13791 16.3634 5.14081L9.70712 12.8556C9.68179 12.8849 9.65103 12.9088 9.61662 12.9259C9.58221 12.9429 9.54484 12.9528 9.50668 12.9549C9.46852 12.9571 9.43033 12.9514 9.39432 12.9382C9.35832 12.9251 9.32523 12.9047 9.29696 12.8783L7.08788 10.8161C6.85845 10.6004 6.55858 10.4806 6.24733 10.4803Z" fill="white"/>
</g>
<defs>
<clipPath id="clip0_891_2298">
<rect width="22" height="22" rx="11" fill="white"/>
</clipPath>
</defs>
</svg>
